<svg xmlns="http://www.w3.org/2000/svg" viewBox="0 0 24 24" id="IcHide"><path d="m4.53 3.22 16 16a.75.75 0 0 1-1.061 1.061l-2.985-2.984a10.91 10.91 0 0 1-4.463.953c-4.302 0-8.21-2.529-9.957-6.444a.75.75 0 0 1 0-.612 10.85 10.85 0 0 1 3.785-4.533L3.47 4.28a.75.75 0 0 1 1.06-1.06m-.682 7.769-.178.328a.4.4 0 0 0-.028.295l.038.089.009.016a9.412 9.412 0 0 0 8.334 5.033 9.41 9.41 0 0 0 3.314-.602l-1.453-1.453a3.73 3.73 0 0 1-1.866.498 3.755 3.755 0 0 1-3.75-3.75c0-.679.182-1.316.499-1.866L6.933 7.743a9.37 9.37 0 0 0-3.084 3.246zm8.173-6.239a10.91 10.91 0 0 1 9.957 6.444.75.75 0 0 1 0 .612 10.811 10.811 0 0 1-2.463 3.468l-.284.258a.296.296 0 0 1-.404-.013l-.633-.632a.311.311 0 0 1 0-.441l.016-.015a9.347 9.347 0 0 0 1.956-2.373l.206-.376a.4.4 0 0 0 .028-.296l-.029-.071-.143-.266a9.414 9.414 0 0 0-7.897-4.795l-.311-.005a9.42 9.42 0 0 0-1.897.193l-.092.02a.4.4 0 0 1-.369-.108l-.82-.82a.203.203 0 0 1 0-.287l.04-.031.046-.02a10.91 10.91 0 0 1 3.092-.447zm-2.255 6.693a2.25 2.25 0 0 0 2.99 2.126l-2.865-2.865c-.081.232-.124.48-.124.739zm2.25-3.75a3.755 3.755 0 0 1 3.75 3.75 3.77 3.77 0 0 1-.019.379l-.023.186a.18.18 0 0 1-.205.151.188.188 0 0 1-.101-.051l-1.149-1.15a.4.4 0 0 1-.1-.166 2.34 2.34 0 0 0-.053-.16 2.258 2.258 0 0 0-1.365-1.316 2.03 2.03 0 0 0-.083-.026.4.4 0 0 1-.169-.101l-1.138-1.138a.188.188 0 0 1 .066-.308l.039-.01a3.76 3.76 0 0 1 .55-.04" fill="#E21B70"/></svg>