<svg xmlns="http://www.w3.org/2000/svg" viewBox="0 0 24 24" id="IcShow"><path d="M12.022 5a10.91 10.91 0 0 1 9.957 6.444.75.75 0 0 1 0 .612c-1.747 3.915-5.655 6.444-9.957 6.444s-8.21-2.529-9.957-6.444a.75.75 0 0 1 0-.612A10.91 10.91 0 0 1 12.022 5m0 1.5a9.41 9.41 0 0 0-8.336 5.038l-.015.029a.4.4 0 0 0 0 .366l.009.018.009.016C5.297 15.043 8.507 17 12.022 17s6.723-1.956 8.332-5.03l.019-.037a.4.4 0 0 0-.001-.367l.002.004-.003-.004-.143-.266a9.414 9.414 0 0 0-7.897-4.795L12.02 6.5zm-.005 1.443c2.068 0 3.75 1.683 3.75 3.75s-1.682 3.75-3.75 3.75-3.75-1.682-3.75-3.75 1.683-3.75 3.75-3.75m0 1.5a2.25 2.25 0 1 0 0 4.5 2.25 2.25 0 1 0 0-4.5" fill="#E21B70"/></svg>